<svg version="1.1" id="Layer_1" xmlns="http://www.w3.org/2000/svg" xmlns:xlink="http://www.w3.org/1999/xlink" x="0px" y="0px"
	 width="100%" viewBox="0 0 300 300" enable-background="new 0 0 300 300" xml:space="preserve">
<path fill="#000000" opacity="1.000000" stroke="none" 
	d="
M138.000000,301.000000 
	C92.000000,301.000000 46.500000,301.000000 1.000000,301.000000 
	C1.000000,201.000000 1.000000,101.000000 1.000000,1.000000 
	C101.000000,1.000000 201.000000,1.000000 301.000000,1.000000 
	C301.000000,101.000000 301.000000,201.000000 301.000000,301.000000 
	C246.833328,301.000000 192.666672,301.000000 138.000000,301.000000 
M81.803040,119.833244 
	C91.798164,119.890045 101.798256,119.799118 111.783966,120.135422 
	C113.652855,120.198372 116.281143,121.493790 117.178772,123.027985 
	C129.571671,144.209381 141.717499,165.535278 153.936157,186.818726 
	C158.984711,195.612701 164.062561,204.389862 169.348389,213.558548 
	C174.871216,203.626709 179.896606,194.345398 185.190536,185.219864 
	C186.753479,182.525665 186.392349,180.586746 184.894501,178.036316 
	C174.227325,159.873062 163.705994,141.623901 153.213074,123.359108 
	C152.475266,122.074821 152.336212,120.446556 152.546738,119.747330 
	C162.695160,119.832924 172.849091,119.768272 182.987061,120.139412 
	C184.863083,120.208092 187.485443,121.564178 188.392792,123.123550 
	C199.643921,142.459351 210.627853,161.950485 221.708878,181.385498 
	C227.662811,191.828110 233.671127,202.239731 239.633301,212.627686 
	C240.333237,212.328644 240.773376,212.286713 240.898651,212.066040 
	C246.264557,202.613113 251.676697,193.184387 256.842682,183.622772 
	C257.437531,182.521805 257.109192,180.401321 256.422485,179.204895 
	C239.597427,149.890671 222.685791,120.625999 205.678329,91.417259 
	C205.017670,90.282631 203.267288,89.125168 202.004364,89.102333 
	C191.688324,88.915794 181.367126,88.961769 171.048569,89.054375 
	C170.089874,89.062973 168.682877,89.620773 168.252777,90.366783 
	C162.745987,99.918213 157.379440,109.550499 151.286575,119.513924 
	C145.837784,110.282860 140.490448,100.988747 134.834045,91.886703 
	C133.955826,90.473503 131.688782,89.177979 130.022675,89.124893 
	C121.401871,88.850197 112.754776,89.277260 104.143341,88.882263 
	C99.635529,88.675491 96.802963,89.683960 95.032516,94.116234 
	C93.709541,97.428276 91.327209,100.301918 89.605339,103.473259 
	C86.650040,108.916328 83.842110,114.439423 80.470039,120.374603 
	C80.115166,120.682610 79.643250,120.923393 79.422188,121.308266 
	C68.014900,141.168259 56.596230,161.022034 45.324196,180.958679 
	C44.666874,182.121262 44.643959,184.285812 45.292473,185.441772 
	C50.539738,194.794907 56.018398,204.018204 61.743389,213.823914 
	C67.728683,203.500854 73.490746,193.562805 79.626617,182.980042 
	C85.706436,193.304123 91.516586,203.170258 97.455811,213.255585 
	C103.516121,202.758118 109.366966,192.623489 115.340591,182.276169 
	C109.835968,172.485809 104.252563,162.701630 98.811485,152.838928 
	C92.755493,141.861603 86.829071,130.812805 81.803040,119.833244 
z"/>
<path fill="#FDFDFD" opacity="1.000000" stroke="none" 
	d="
M151.977310,119.162270 
	C157.379440,109.550499 162.745987,99.918213 168.252777,90.366783 
	C168.682877,89.620773 170.089874,89.062973 171.048569,89.054375 
	C181.367126,88.961769 191.688324,88.915794 202.004364,89.102333 
	C203.267288,89.125168 205.017670,90.282631 205.678329,91.417259 
	C222.685791,120.625999 239.597427,149.890671 256.422485,179.204895 
	C257.109192,180.401321 257.437531,182.521805 256.842682,183.622772 
	C251.676697,193.184387 246.264557,202.613113 240.898651,212.066040 
	C240.773376,212.286713 240.333237,212.328644 239.633301,212.627686 
	C233.671127,202.239731 227.662811,191.828110 221.708878,181.385498 
	C210.627853,161.950485 199.643921,142.459351 188.392792,123.123550 
	C187.485443,121.564178 184.863083,120.208092 182.987061,120.139412 
	C172.849091,119.768272 162.695160,119.832924 152.229156,119.419174 
	C151.911591,119.091026 151.977310,119.162270 151.977310,119.162270 
z"/>
<path fill="#FDFDFD" opacity="1.000000" stroke="none" 
	d="
M151.631943,119.338097 
	C151.977310,119.162270 151.911591,119.091026 151.915161,119.034637 
	C152.336212,120.446556 152.475266,122.074821 153.213074,123.359108 
	C163.705994,141.623901 174.227325,159.873062 184.894501,178.036316 
	C186.392349,180.586746 186.753479,182.525665 185.190536,185.219864 
	C179.896606,194.345398 174.871216,203.626709 169.348389,213.558548 
	C164.062561,204.389862 158.984711,195.612701 153.936157,186.818726 
	C141.717499,165.535278 129.571671,144.209381 117.178772,123.027985 
	C116.281143,121.493790 113.652855,120.198372 111.783966,120.135422 
	C101.798256,119.799118 91.798164,119.890045 81.346664,119.856583 
	C80.890282,119.879921 80.972313,119.928925 80.972313,119.928925 
	C83.842110,114.439423 86.650040,108.916328 89.605339,103.473259 
	C91.327209,100.301918 93.709541,97.428276 95.032516,94.116234 
	C96.802963,89.683960 99.635529,88.675491 104.143341,88.882263 
	C112.754776,89.277260 121.401871,88.850197 130.022675,89.124893 
	C131.688782,89.177979 133.955826,90.473503 134.834045,91.886703 
	C140.490448,100.988747 145.837784,110.282860 151.631943,119.338097 
z"/>
<path fill="#FBFBFB" opacity="1.000000" stroke="none" 
	d="
M80.868263,119.837524 
	C86.829071,130.812805 92.755493,141.861603 98.811485,152.838928 
	C104.252563,162.701630 109.835968,172.485809 115.340591,182.276169 
	C109.366966,192.623489 103.516121,202.758118 97.455811,213.255585 
	C91.516586,203.170258 85.706436,193.304123 79.626617,182.980042 
	C73.490746,193.562805 67.728683,203.500854 61.743389,213.823914 
	C56.018398,204.018204 50.539738,194.794907 45.292473,185.441772 
	C44.643959,184.285812 44.666874,182.121262 45.324196,180.958679 
	C56.596230,161.022034 68.014900,141.168259 79.422188,121.308266 
	C79.643250,120.923393 80.115166,120.682610 80.721176,120.151764 
	C80.972313,119.928925 80.890282,119.879921 80.868263,119.837524 
z"/>
</svg>